<?xml version="1.0" encoding="UTF-8" standalone="no"?>
<!-- Created with Inkscape (http://www.inkscape.org/) -->

<svg
   width="210mm"
   height="297mm"
   viewBox="0 0 210 297"
   version="1.1"
   id="svg1"
   inkscape:version="1.4.2 (f4327f4, 2025-05-13)"
   sodipodi:docname="football.svg"
   xmlns:inkscape="http://www.inkscape.org/namespaces/inkscape"
   xmlns:sodipodi="http://sodipodi.sourceforge.net/DTD/sodipodi-0.dtd"
   xmlns="http://www.w3.org/2000/svg"
   xmlns:svg="http://www.w3.org/2000/svg">
  <sodipodi:namedview
     id="namedview1"
     pagecolor="#ffffff"
     bordercolor="#000000"
     borderopacity="0.25"
     inkscape:showpageshadow="2"
     inkscape:pageopacity="0.0"
     inkscape:pagecheckerboard="0"
     inkscape:deskcolor="#d1d1d1"
     inkscape:document-units="mm"
     inkscape:zoom="0.71891835"
     inkscape:cx="397.12437"
     inkscape:cy="561.25984"
     inkscape:window-width="1920"
     inkscape:window-height="1009"
     inkscape:window-x="-8"
     inkscape:window-y="-8"
     inkscape:window-maximized="1"
     inkscape:current-layer="layer1" />
  <defs
     id="defs1" />
  <g
     inkscape:label="Layer 1"
     inkscape:groupmode="layer"
     id="layer1">
    <g
       id="g45"
       transform="translate(58.366684,-165.4602)">
      <path
         style="fill:none;stroke:#000000;stroke-width:0.264583px;stroke-linecap:butt;stroke-linejoin:miter;stroke-opacity:1"
         d="m 42.750859,260.75927 7.13135,11.57552 11.67887,-4.23746 1.44694,-13.64258 -11.88558,-3.82406 z"
         id="path23" />
      <path
         style="fill:#00ffff;stroke:#000000;stroke-width:0.264583px;stroke-linecap:butt;stroke-linejoin:miter;stroke-opacity:1"
         d="m 24.664109,247.3234 4.96094,12.40235 13.12581,0.72346 v 0.31006 l 8.37158,-10.12858 -4.54752,-11.65998 -13.74594,-1.56918 z"
         id="path24" />
      <path
         style="fill:#d35f5f;stroke:#000000;stroke-width:0.264583px;stroke-linecap:butt;stroke-linejoin:miter;stroke-opacity:1"
         d="m 42.750859,260.60424 -13.12581,-0.87849 -6.61459,8.88834 5.78776,10.7487 13.40118,2.06706 7.68281,-9.09506 z"
         id="path25" />
      <path
         style="fill:#ff7f2a;stroke:#000000;stroke-width:0.264583px;stroke-linecap:butt;stroke-linejoin:miter;stroke-opacity:1"
         d="m 29.625049,259.72575 -4.96094,-12.40235 -9.55543,3.15389 -1.38856,11.74039 9.29034,6.39641 z"
         id="path26" />
      <path
         style="fill:#aad400;stroke:#000000;stroke-width:0.264583px;stroke-linecap:butt;stroke-linejoin:miter;stroke-opacity:1"
         d="m 15.108679,250.47729 -1.52932,-7.99162 3.64868,-6.43117 4.44933,-4.38489 4.32045,-1.60779 3.77755,-0.36541 1.26507,-0.14616 1.78854,7.85128 v 0 l -8.16487,9.92187 z"
         id="path27" />
      <path
         style="fill:#d42aff;stroke:#000000;stroke-width:0.264583px;stroke-linecap:butt;stroke-linejoin:miter;stroke-opacity:1"
         d="m 31.040439,229.55025 11.43726,-3.50791 10.26795,5.40803 -6.17073,7.52034 -13.74594,-1.56918 z"
         id="path28" />
      <path
         style="fill:#ffccaa;stroke:#000000;stroke-width:0.264583px;stroke-linecap:butt;stroke-linejoin:miter;stroke-opacity:1"
         d="m 49.882209,272.33479 11.67887,-4.23746 4.77773,5.0095 -6.28501,9.50059 -12.23865,4.09342 -5.61575,-5.27099 z"
         id="path29" />
      <path
         style="fill:#d40055;stroke:#000000;stroke-width:0.264583px;stroke-linecap:butt;stroke-linejoin:miter;stroke-opacity:1"
         d="m 63.008019,254.45475 5.45016,-6.92645 -4.60414,-11.40072 -11.10839,-4.67721 -6.17073,7.52034 4.54752,11.65998 z"
         id="path30" />
      <path
         style="fill:#00aa44;stroke:#000000;stroke-width:0.264583px;stroke-linecap:butt;stroke-linejoin:miter;stroke-opacity:1"
         d="m 13.720119,262.21768 -2.26552,5.29841 -0.0731,1.27927 1.02315,2.70367 1.17469,1.71742 1.09083,1.93666 1.86357,2.70402 2.04628,2.04628 1.93666,1.9732 1.93666,1.68087 2.05884,1.16931 1.15675,0.36541 3.12927,-5.72941 -5.78776,-10.7487 z"
         id="path31" />
      <path
         style="fill:#00aad4;stroke:#000000;stroke-width:0.264583px;stroke-linecap:butt;stroke-linejoin:miter;stroke-opacity:1"
         d="m 66.338809,273.10683 6.15712,-6.57734 1.37028,-4.51243 0.62119,-3.70924 -0.10962,-3.25213 -1.02314,-2.59439 -2.11937,-2.63093 -2.77709,-2.30207 -5.45016,6.92645 -1.44694,13.64258 z"
         id="path32" />
      <path
         style="fill:#aaeeff;stroke:#000000;stroke-width:0.264583px;stroke-linecap:butt;stroke-linejoin:miter;stroke-opacity:1"
         d="m 47.815149,286.70084 -4.67972,1.53223 h 2.88672 l 3.03289,-0.29069 2.99634,-0.73082 2.77709,-1.20584 3.03289,-1.13277 3.36175,-1.82704 -1.16931,-0.43849 z"
         id="path33" />
      <path
         style="fill:#0b280b;stroke:#000000;stroke-width:0.264583px;stroke-linecap:butt;stroke-linejoin:miter;stroke-opacity:1"
         d="m 60.053799,282.60742 6.28501,-9.50059 6.15712,-6.57734 -0.005,1.23194 -0.56844,0.93018 c 0,0 -0.33589,0.77514 -0.38757,0.8785 -0.0517,0.10335 -0.62012,1.36942 -0.62012,1.36942 l -0.59428,1.34359 -0.77514,1.26607 -1.00769,1.47278 -1.16272,1.62781 -6.15157,6.39613 -1.16931,-0.43849 z"
         id="path34" />
      <path
         style="fill:#000055;stroke:#000000;stroke-width:0.264583px;stroke-linecap:butt;stroke-linejoin:miter;stroke-opacity:1"
         d="m 43.135429,288.23307 -7.15418,0.13229 -4.65088,-0.42428 -3.35897,-1.08973 -2.30247,-1.75915 3.12927,-5.72941 13.4012,2.06706 5.61575,5.27099 z"
         id="path35" />
      <path
         style="fill:#000055;stroke:#000000;stroke-width:0.264583px;stroke-linecap:butt;stroke-linejoin:miter;stroke-opacity:1"
         d="m 13.579359,242.48567 -1.83245,1.6078 -1.09622,2.26552 -0.9500396,2.04629 -0.29234,2.24486 c 0,0 -0.29231,2.79776 -0.29231,3.16317 0,0.36541 -0.14618,4.16377 -0.14618,4.16377 l 0.0731,4.03998 0.65775,2.68539 1.7539496,2.81364 2.26552,-5.29841 1.38856,-11.74039 z"
         id="path36" />
      <path
         style="fill:#ffcc00;stroke:#000000;stroke-width:0.264583px;stroke-linecap:butt;stroke-linejoin:miter;stroke-opacity:1"
         d="m 42.477699,226.04234 2.19245,-1.31547 h 1.93666 l 1.82703,0.47503 1.64434,0.32887 1.57125,0.36909 2.22899,0.83675 2.30206,0.9866 2.33861,1.27893 1.35201,0.9866 2.37515,1.75396 1.75395,1.57125 1.20585,1.42509 -1.35201,1.38854 -11.10839,-4.67721 z"
         id="path37" />
      <path
         style="fill:#aa4400;stroke:#000000;stroke-width:0.264583px;stroke-linecap:butt;stroke-linejoin:miter;stroke-opacity:1"
         d="m 31.040439,229.55025 11.43726,-3.50791 2.19245,-1.31547 -2.46208,-0.1323 h -1.93768 -2.76469 l -1.31775,0.3271 -2.66133,0.49093 -2.50631,0.82682 -1.62781,0.56844 -2.45463,0.98185 -2.42567,1.13688 -1.30586,0.90434 -1.15189,0.82682 -0.6718,0.63238 -0.24194,0.90837 0.53666,-0.52889 4.32045,-1.60779 z"
         id="path38" />
      <path
         style="fill:#800066;stroke:#000000;stroke-width:0.264583px;stroke-linecap:butt;stroke-linejoin:miter;stroke-opacity:1"
         d="m 10.175679,247.38213 0.35492,-2.09995 0.95602,-2.35128 1.36943,-2.5063 1.88618,-2.71301 1.29191,-1.60197 1.67949,-1.70532 1.93787,-2.06706 1.73115,-1.04711 -0.24194,0.90837 -3.91267,3.856 -3.64868,6.43117 -1.83245,1.6078 z"
         id="path39" />
      <path
         style="fill:#217821;stroke:#000000;stroke-width:0.264583px;stroke-linecap:butt;stroke-linejoin:miter;stroke-opacity:1"
         d="m 65.206049,234.73904 1.82704,1.82703 1.86358,2.33861 0.9866,1.7905 1.20584,2.25432 1.09622,2.38635 0.91352,2.81364 0.6212,2.50065 0.65773,4.40555 -1.02314,-2.59439 -1.05968,-1.31547 -1.05969,-1.31546 -2.77709,-2.30207 -4.60414,-11.40072 z"
         id="path40" />
      <path
         style="fill:#ff6600;stroke:#000000;stroke-width:0.264583px;stroke-linecap:butt;stroke-linejoin:miter;stroke-opacity:1"
         d="m 49.882209,272.33479 c 0,0 11.67887,-4.23746 11.67887,-4.23746 0,0 1.44694,-13.64258 1.44694,-13.64258 l -11.88558,-3.82406 -8.37158,9.81852 z"
         id="path41" />
    </g>
  </g>
</svg>
